# xmcd
#
# Track frame offsets:
#  150
#  18737
#  30770
#  43970
#  59547
#  74485
#  84879
#  102015
#  112590
#  122345
#  138545
#  155147
#  170082
#  184437
#  194717
#  208157
#  216727
#  231875
#  240970
#  252397
#
# Disc length: 3631 seconds
#
# Revision: 0
# Processed by: cddbd v1.4PL0 Copyright (c) Steve Scherf et al.
# Submitted via: AltoMP3_Maker 3.0
#
DISCID=290e2d14
DTITLE=Tommy Allen  - When They Close The Last Honky Tonk In Texas
DYEAR=1900
DGENRE=
TTITLE0=The Great Troubadoux
TTITLE1=Nanner Pudding
TTITLE2=Today, Mama Bought A Possum
TTITLE3=The Greatest Cowboy Of The All
TTITLE4=Forty Miles Of Rocky Road And Thirty Miles Of Sand
TTITLE5=When His Right Hand Won The Silver, His Left Hand Lost The Gold
TTITLE6=You Don't Even Care Enough To Lie
TTITLE7=Lookin' For A Hole In The Fence
TTITLE8=Texas Just Ain't Texas
TTITLE9=Mama's Eyes
TTITLE10=Company D
TTITLE11=When They Close The Last Honky Tonk In Texas
TTITLE12=Thinkin' 'Bout You
TTITLE13=A Face In The Crowd
TTITLE14=When It's Swing Time In The Rockies
TTITLE15=If You Ain't Easy
TTITLE16=One Of Those Days
TTITLE17=Good For Nothing But You
TTITLE18=Before The Water Runs Down
TTITLE19=Old Roany
EXTD=
EXTT0=
EXTT1=
EXTT2=
EXTT3=
EXTT4=
EXTT5=
EXTT6=
EXTT7=
EXTT8=
EXTT9=
EXTT10=
EXTT11=
EXTT12=
EXTT13=
EXTT14=
EXTT15=
EXTT16=
EXTT17=
EXTT18=
EXTT19=
PLAYORDER=
